<?xml version="1.0" encoding="utf-8"?>
<!-- Generator: Adobe Illustrator 20.1.0, SVG Export Plug-In . SVG Version: 6.00 Build 0)  -->
<svg version="1.1" id="Layer_1" xmlns="http://www.w3.org/2000/svg" xmlns:xlink="http://www.w3.org/1999/xlink" x="0px" y="0px"
	 viewBox="0 0 370.7 52.5" style="enable-background:new 0 0 370.7 52.5;" xml:space="preserve">
<style type="text/css">
	.st0{fill:#FFFFFF;}
</style>
<g>
	<path class="st0" d="M55.9,14.4c0,2.9-1.5,5.6-4.6,8.1c-1.8,1.5-4.6,3.2-8.4,5c1.5,2.6,2.3,5,2.3,7.1c0,4.4-2.8,7.7-8.5,9.8
		c-4.1,1.5-8.8,2.2-14.2,2.2H7.1l10.7-30.4h10.7L19.4,42h1.5c3.5,0,6.4-0.4,8.8-1.2c3.5-1.2,5.3-3.2,5.3-5.9c0-0.9-0.4-1.9-1.2-3.1
		c-0.8-1.2-1.2-2.1-1.2-2.6c0-0.3,0-0.5,0.1-0.6c0.4-0.9,1.5-1.7,3.2-2.5c2.4-1.2,4.2-2.2,5.3-3.2c1.9-1.6,2.8-3.5,2.8-5.7
		c0-3-2.3-4.6-7-4.6H2.5L7,5.1h34.5c4.5,0,7.9,0.6,10.2,1.8C54.6,8.4,55.9,10.9,55.9,14.4z"/>
	<path class="st0" d="M89,42c-0.4,1.5-1.4,2.7-2.8,3.6c-1.3,0.8-2.8,1.2-4.5,1.2H65.1c-9.6,0-14.4-2.9-14.4-8.7
		c0-3.7,1.6-6.6,4.9-8.7c2.8-1.8,6.2-2.7,10.1-2.7H70c2.5,0,4.7,0.4,6.6,1.2c2.5,1,3.8,2.6,4,4.7c0.1,2.1-0.9,3.9-3,5.3h-9.8
		l3.2-6.4h-6.2l-2.4,7.1c-0.1,0.4-0.2,0.8-0.2,1.1c0,1.6,1.3,2.4,3.8,2.4H89z"/>
	<path class="st0" d="M111.7,42c-0.5,1.7-1.6,3-3.4,3.8c-1.2,0.6-2.6,0.9-4,0.9H92.9c-2.9,0-4.4-1-4.4-3c0-0.5,0.1-1.1,0.3-1.7
		l11-31h10.5l-11,31H111.7z"/>
	<path class="st0" d="M203.1,42c-0.8,3.2-3.6,4.7-8.2,4.7h-10.6c-3.3,0-5-1-5-2.9c0-0.7,0.2-1.5,0.6-2.6l4.9-12.8l-14.7,16.1
		c-1.6,1.8-3.3,2.6-5.2,2.6c-0.4,0-0.7,0-1.1-0.1c-2.2-0.3-3.4-1.4-3.4-3.4c0-0.8,0.2-1.6,0.5-2.5l7.3-18.8l-18.3,22
		c-1.2,1.5-3,2.2-5.4,2.2h-6l12-34.2h-16.4l4.5-7.5h19.8c2.7,0,4.1,1,4.1,3c0,0.8-0.2,1.7-0.6,2.8l-6.4,18.3l12.7-14.4
		c1.6-1.9,2.9-3.1,3.7-3.6c1.4-0.9,3.3-1.4,5.6-1.4c0.7,0,1.3,0.2,2,0.7c1.1,0.7,1.6,1.8,1.6,3.2c0,0.9-0.2,1.8-0.7,2.9l-5.7,14.9
		L186.2,20c1.6-1.6,2.7-2.6,3.2-2.9c0.9-0.5,2.3-0.8,4-0.8c0.7,0,1.4,0.3,2.2,0.8c1.2,0.8,1.8,1.9,1.8,3.4c0,0.8-0.2,1.8-0.6,2.8
		L189.8,42H203.1z"/>
	<path class="st0" d="M253.4,26.6c-0.8,3.2-3.2,4.7-7.1,4.7h-18.5c0.7,0.4,1.2,1.2,1.6,2.4c0.4,1.2,0.6,2.2,0.5,3
		c-0.3,3.3-1.7,5.9-4.4,7.8c-2.5,1.8-5.8,2.7-9.8,2.7c-4.7,0-8.2-0.9-10.7-2.8c-2.2-1.7-3.3-3.8-3.3-6.5c0-0.5,0-1.1,0.1-1.6
		c0.5-3,2-5.3,4.4-7c2.6-1.8,6.1-2.7,10.4-2.7H253.4z M221.1,31.3h-6.8l-2.7,7.6c-0.1,0.4-0.2,0.8-0.2,1.1c0,1.7,1.6,2.5,4.7,2.5
		c0.4,0,0.7,0,1,0L221.1,31.3z"/>
	<path class="st0" d="M278.8,42c-0.5,1.7-1.6,3-3.4,3.8c-1.2,0.6-2.6,0.9-4,0.9h-11.8c-2.7,0-4.1-0.9-4.1-2.7c0-0.6,0.1-1.3,0.4-2.1
		l2.2-6.4L248,44.2c-2.4,1.7-4.3,2.5-5.9,2.5h-5.4l7.1-20.1h10.7l-3.3,9.5l9-7.4c2.4-2,5.1-2.9,8-2.9c1.9,0.1,2.9,1.1,2.9,3.1
		c0,0.7-0.2,1.5-0.5,2.5L266.7,42H278.8z"/>
	<path class="st0" d="M318,42c-1,3.2-3.4,4.7-7.2,4.7h-11.3c-3.3,0-4.9-1-4.8-3.1c-2.2,2.5-5.1,3.8-8.7,3.8c-2.4,0-4.3-0.7-5.8-2
		c-1.5-1.4-2.3-3.3-2.3-5.6c0-4.3,1.7-7.6,5.2-10.1c3.1-2.1,6.8-3.2,11.3-3.2h6.2L306,11h10.8l-11,31H318z M298.8,31.3h-7.5
		l-2.2,6.4c-0.2,0.6-0.3,1.1-0.3,1.6c0,1.3,0.8,2.2,2.5,2.5c0.6,0.1,1.9,0.2,3.8,0.2L298.8,31.3z"/>
	<path class="st0" d="M368.2,26.6c-0.8,3.2-3.2,4.7-7.1,4.7h-18.5c0.7,0.4,1.2,1.2,1.6,2.4c0.4,1.2,0.6,2.2,0.5,3
		c-0.3,3.3-1.7,5.9-4.3,7.8c-2.5,1.8-5.8,2.7-9.8,2.7c-4.7,0-8.2-0.9-10.7-2.8c-2.2-1.7-3.3-3.8-3.3-6.5c0-0.5,0-1.1,0.1-1.6
		c0.5-3,2-5.3,4.4-7c2.6-1.8,6.1-2.7,10.4-2.7H368.2z M336,31.3h-6.8l-2.7,7.6c-0.1,0.4-0.2,0.8-0.2,1.1c0,1.7,1.6,2.5,4.7,2.5
		c0.4,0,0.7,0,1,0L336,31.3z"/>
</g>
</svg>
